<svg width="900" height="500" viewBox="0 0 900 500" xmlns="http://www.w3.org/2000/svg">

  <!-- Background -->
  <rect width="100%" height="100%" fill="#F7C98A"></rect>

  <!-- Book -->
  <g stroke="#1E5AA8" stroke-width="4" fill="none">
    <path d="M250 260 C210 220, 180 200, 150 190 L150 300 C180 290, 210 280, 250 260 Z"></path>
    <path d="M250 260 C290 220, 320 200, 350 190 L350 300 C320 290, 290 280, 250 260 Z"></path>
    <line x1="250" y1="260" x2="250" y2="320"></line>
  </g>

  <!-- Quill -->
  <path d="M120 150 C70 90, 40 60, 30 50
           C60 70, 90 100, 120 150 Z" stroke="#1E5AA8" stroke-width="4" fill="none"></path>

  <!-- Candle -->
  <g stroke="#1E5AA8" stroke-width="4" fill="none">
    <rect x="580" y="190" width="40" height="110"></rect>
    <ellipse cx="600" cy="305" rx="60" ry="15"></ellipse>
    <path d="M600 160 C585 140, 615 140, 600 120
             C625 145, 595 150, 600 160 Z"></path>
  </g>

  <!-- Text -->
  <text x="450" y="420" text-anchor="middle" font-size="42" font-family="Arial, Helvetica, sans-serif" fill="#1E5AA8" font-weight="bold">
    ANBUDAN MITHTHIRAN WORKS
  </text>

</svg>
